<svg width="24" xmlns="http://www.w3.org/2000/svg" height="24" id="screenshot-b9dfde07-b342-802b-8006-e927301cb9a1" viewBox="0 0 24 24" xmlns:xlink="http://www.w3.org/1999/xlink" fill="none" version="1.1"><g id="shape-b9dfde07-b342-802b-8006-e927301cb9a1"><defs><clipPath id="frame-clip-b9dfde07-b342-802b-8006-e927301cb9a1-render-1" class="frame-clip frame-clip-def"><rect rx="0" ry="0" x="0" y="0" width="24" height="24" transform="matrix(1.000000, 0.000000, 0.000000, 1.000000, 0.000000, 0.000000)"/></clipPath></defs><g class="frame-container-wrapper"><g class="frame-container-blur"><g class="frame-container-shadows"><g clip-path="url(#frame-clip-b9dfde07-b342-802b-8006-e927301cb9a1-render-1)" fill="none"><g class="fills" id="fills-b9dfde07-b342-802b-8006-e927301cb9a1"><rect rx="0" ry="0" x="0" y="0" width="24" height="24" transform="matrix(1.000000, 0.000000, 0.000000, 1.000000, 0.000000, 0.000000)" class="frame-background"/></g><g class="frame-children"><g id="shape-b9dfde07-b342-802b-8006-e9275eefc7af"><g class="fills" id="fills-b9dfde07-b342-802b-8006-e9275eefc7af"><path d="M10,6 h4 a6,6 0 0 1 6,6 v3 a0,0 0 0 1 0,0 h-16 a0,0 0 0 1 0,0 v-3 a6,6 0 0 1 6,-6 z" x="4" y="6" transform="matrix(1.000000, 0.000000, 0.000000, 1.000000, 0.000000, 0.000000)" width="16" height="9" style="fill: rgb(244, 217, 17); fill-opacity: 1;"/></g><g id="strokes-4da99e5c-9b41-8073-8006-e928ea61aaaa-b9dfde07-b342-802b-8006-e9275eefc7af" class="strokes"><g class="stroke-shape"><path d="M10,6 h4 a6,6 0 0 1 6,6 v3 a0,0 0 0 1 0,0 h-16 a0,0 0 0 1 0,0 v-3 a6,6 0 0 1 6,-6 z" x="4" y="6" transform="matrix(1.000000, 0.000000, 0.000000, 1.000000, 0.000000, 0.000000)" width="16" height="9" style="fill: none; stroke-width: 2; stroke: rgb(0, 0, 0); stroke-opacity: 1;"/></g></g></g><g id="shape-b9dfde07-b342-802b-8006-e927377a3d96"><g class="fills" id="fills-b9dfde07-b342-802b-8006-e927377a3d96"><path d="M10,10L10,5C10,4.44769287109375,10.44769287109375,4,11,4L13,4C13.55230712890625,4,14,4.44769287109375,14,5L14,10" fill="none" stroke-linejoin="round" stroke-linecap="round" style="fill: rgb(244, 217, 17); fill-opacity: 1;"/></g><g fill="none" stroke-linejoin="round" stroke-linecap="round" id="strokes-4da99e5c-9b41-8073-8006-e928ea62d1f9-b9dfde07-b342-802b-8006-e927377a3d96" class="strokes"><g class="stroke-shape"><path d="M10,10L10,5C10,4.44769287109375,10.44769287109375,4,11,4L13,4C13.55230712890625,4,14,4.44769287109375,14,5L14,10" style="fill: none; stroke-width: 2; stroke: rgb(0, 0, 0); stroke-opacity: 1;"/></g></g></g><g id="shape-b9dfde07-b342-802b-8006-e927377a9ad9"><g class="fills" id="fills-b9dfde07-b342-802b-8006-e927377a9ad9"><rect width="20" height="4" x="2" stroke-linejoin="round" transform="matrix(1.000000, 0.000000, 0.000000, 1.000000, 0.000000, 0.000000)" style="fill: rgb(244, 217, 17); fill-opacity: 1;" ry="1" fill="none" stroke-linecap="round" rx="1" y="15"/></g><g fill="none" stroke-linejoin="round" stroke-linecap="round" id="strokes-4da99e5c-9b41-8073-8006-e928ea631f1a-b9dfde07-b342-802b-8006-e927377a9ad9" class="strokes"><g class="stroke-shape"><rect rx="1" ry="1" x="2" y="15" transform="matrix(1.000000, 0.000000, 0.000000, 1.000000, 0.000000, 0.000000)" width="20" height="4" style="fill: none; stroke-width: 2; stroke: rgb(0, 0, 0); stroke-opacity: 1;"/></g></g></g></g></g></g></g></g></g></svg>